<svg xmlns="http://www.w3.org/2000/svg" width="24" height="24" viewBox="0 0 512 512">  <path fill="#00A4DE" d="M64 32h384c17.673 0 32 14.327 32 32v384c0 17.673-14.327 32-32 32H64c-17.673 0-32-14.327-32-32V64c0-17.673 14.327-32 32-32zm135.878 145.502v158.55h65.098c40.11 0 70.424-9.886 90.926-29.634 17.14-16.64 25.71-38.357 25.71-65.15 0-28.32-9.494-50.574-28.508-66.766-18.286-15.61-46.728-23.416-85.327-23.416h-67.899zm60.998 45.22c17.703 0 30.228 3.614 37.574 10.843 6.763 6.86 10.145 15.452 10.145 25.78 0 11.147-3.576 20.115-10.73 26.902-7.805 7.246-20.79 10.87-38.956 10.87h-21.732v-74.395h23.699z"/></svg>