<!-- /public/icons/line.svg -->
<svg xmlns="http://www.w3.org/2000/svg" width="24" height="24" viewBox="0 0 512 512">
  <path fill="#00C300" d="M256.064 32C114.624 32 0 132.512 0 256c0 72.64 39.744 137.344 102.08 180.736V480l93.568-50.72c19.648 4.544 40.064 7.04 60.416 7.04 141.44 0 256-100.512 256-224S397.504 32 256.064 32zM152 280c-13.232 0-24-10.768-24-24s10.768-24 24-24 24 10.768 24 24-10.768 24-24 24zm80 0c-13.232 0-24-10.768-24-24s10.768-24 24-24 24 10.768 24 24-10.768 24-24 24zm80 0c-13.232 0-24-10.768-24-24s10.768-24 24-24 24 10.768 24 24-10.768 24-24 24z"/>
</svg>
